<?xml version="1.0" encoding="utf-8"?>
<!-- Generator: Adobe Illustrator 21.0.0, SVG Export Plug-In . SVG Version: 6.00 Build 0)  -->
<svg version="1.0" id="tapio_logo_white" xmlns="http://www.w3.org/2000/svg" xmlns:xlink="http://www.w3.org/1999/xlink" x="0px"
	 y="0px" viewBox="0 0 283.5 109.1" style="enable-background:new 0 0 283.5 109.1;" xml:space="preserve">
<style type="text/css">
	.st0{fill:#FFFFFF;}
	.st1{clip-path:url(#SVGID_2_);fill:#FFFFFF;}
</style>
<g>
	<path class="st0" d="M47.9,24.5H26.8V12.4H8.6v12.1H0v12.1h8.6v30.2c0,7.6,3,12.8,9.1,15.9c2.5,1.2,5.5,2,9.1,2.3h21.2V72.9H32.8
		c-3.7,0-5.7-2-6-6V36.6h21.2V24.5L47.9,24.5z M168.7,75.9c1.2-2.5,2-5.5,2.3-9.1V42.7c-0.3-3.5-1.1-6.5-2.3-9.1
		c-3-6-8.3-9.1-15.9-9.1h-3c-6,0.4-9.1,3.4-9.1,9.1l-6-9.1h-12.1v84.6h18.1V85h12.1C160.3,85,165.6,81.9,168.7,75.9L168.7,75.9
		L168.7,75.9z M146.7,72.9h-6V42.7c0.3-4,2.3-6,6-6c4,0.3,6,2.3,6,6v24.2C152.5,70.9,150.5,72.9,146.7,72.9L146.7,72.9L146.7,72.9z
		 M253.2,24.5c-3.5,0.3-6.5,1.1-9.1,2.3c-6,3-9.1,8.3-9.1,15.9v24.2c0.3,3.5,1.1,6.5,2.3,9.1c3,6,8.3,9.1,15.9,9.1h12.1
		c3.5-0.2,6.5-1,9.1-2.3c6-3,9.1-8.3,9.1-15.9V42.7c-0.3-3.5-1.1-6.5-2.3-9.1c-3-6-8.3-9.1-15.9-9.1H253.2L253.2,24.5z M259.3,72.9
		c-4-0.3-6-2.3-6-6V42.7c0.3-4,2.3-6,6-6c4,0.3,6,2.3,6,6v24.2C265,70.9,263,72.9,259.3,72.9L259.3,72.9L259.3,72.9z"/>
	<g>
		<defs>
			<rect id="SVGID_1_" width="283.5" height="109.1"/>
		</defs>
		<clipPath id="SVGID_2_">
			<use xlink:href="#SVGID_1_"  style="overflow:visible;"/>
		</clipPath>
		<path class="st1" d="M108.9,85V42.7c-0.3-3.5-1.1-6.5-2.3-9.1c-3-6-8.3-9.1-15.9-9.1H63.6v12.1h21.2c3.7,0,5.7,2,6,6v6H78.7
			c-7.6,0-12.8,3-15.9,9.1c-1.2,2.5-2,5.5-2.3,9.1c0.3,3.5,1.1,6.5,2.3,9.1c3,6,8.3,9.1,15.9,9.1h3c5.6,0,8.7-3,9.1-9.1l6,9.1H108.9
			L108.9,85z M90.3,67c-0.3,4.1-2.4,6.2-6.2,6.2C80.1,72.9,78,70.8,78,67v-3.1c0.3-4.1,2.4-6.2,6.2-6.2h6.2V67L90.3,67z"/>
		<path class="st1" d="M197.6,0v15.1h15.1V0H197.6L197.6,0z M214.2,24.5h-30.6v12.1h12.5v36.3h-13.4V85h44.9V72.9h-13.4V24.5
			L214.2,24.5z"/>
	</g>
</g>
</svg>
